<svg width="100%" height="100%" viewBox="0 0 410 404" version="1.1" xmlns="http://www.w3.org/2000/svg" xmlns:xlink="http://www.w3.org/1999/xlink" xml:space="preserve" style="fill-rule:evenodd;clip-rule:evenodd;stroke-miterlimit:10;">
    <g transform="matrix(1,0,0,0.404,0,0)">
        <rect id="Artboard1" x="0" y="0" width="410" height="1000" style="fill:none;"/>
        <clipPath id="_clip1">
            <rect id="Artboard11" x="0" y="0" width="410" height="1000"/>
        </clipPath>
        <g clip-path="url(#_clip1)">
            <g transform="matrix(1.48475,0,0,1.48475,-112.213,-287.558)">
                <g transform="matrix(0.521069,0,0,1.28977,180.427,216.676)">
                    <path d="M0,471.289C-16.911,426.851 -32.048,381.777 -45.629,336.153C-52.404,313.337 -58.684,290.357 -64.387,267.196C-70.058,244.028 -75.199,220.682 -79.216,197.041C-83.224,173.403 -86.265,149.486 -87.05,125.104C-87.181,119 -87.27,112.882 -87.026,106.713C-86.97,103.637 -86.725,100.536 -86.56,97.443C-86.276,94.337 -86.064,91.236 -85.642,88.114C-85.31,84.999 -84.77,81.867 -84.267,78.736L-83.326,74.029C-83.02,72.452 -82.604,70.943 -82.247,69.397C-80.716,63.25 -78.78,57.134 -76.359,51.111C-73.944,45.089 -71.019,39.156 -67.377,33.493C-66.501,32.064 -65.497,30.689 -64.535,29.296C-63.5,27.94 -62.517,26.553 -61.391,25.245C-59.235,22.574 -56.808,20.06 -54.242,17.67C-49.08,12.915 -43.063,8.831 -36.48,5.893C-29.912,2.926 -22.832,1.122 -15.804,0.42C-12.28,0.02 -8.781,0 -5.31,0.082C-1.851,0.228 1.575,0.546 4.927,1.077C11.653,2.092 18.083,3.873 24.274,6.023C36.651,10.375 47.978,16.378 58.614,23.076C63.928,26.437 69.074,29.989 74.074,33.687C79.053,37.408 83.913,41.243 88.675,45.168C93.417,49.114 98.039,53.171 102.575,57.304C107.075,61.465 111.536,65.666 115.857,69.979C124.55,78.566 132.866,87.461 140.925,96.546L146.917,103.321C148.945,105.643 150.953,107.998 152.929,110.376C156.897,115.123 160.687,120.026 164.383,125.03C168.073,130.039 171.642,135.172 175.058,140.464C178.438,145.777 181.678,151.242 184.67,156.936C187.642,162.641 190.432,168.546 192.796,174.793C195.152,181.039 197.204,187.593 198.477,194.63C199.749,201.645 200.356,209.201 199.378,217.13C198.881,221.086 198.007,225.12 196.625,229.077C195.248,233.031 193.383,236.9 191.051,240.438C186.418,247.577 180.152,253.241 173.663,257.315C170.407,259.368 167.083,261.079 163.756,262.524C159.87,264.242 156.711,265.156 153.635,266.109C147.509,267.93 141.669,269.44 135.792,270.9C129.928,272.335 124.096,273.703 118.278,275.044L100.881,279.011L92.258,280.942C89.437,281.583 86.514,282.254 84.044,282.882C79.291,284.107 74.632,285.877 71.415,287.883C69.774,288.875 68.542,289.917 67.676,290.895C66.813,291.889 66.266,292.79 65.901,293.987C65.543,295.178 65.375,296.712 65.537,298.573C65.702,300.426 66.135,302.552 66.85,304.768C68.261,309.221 70.617,313.97 73.362,318.622C78.895,327.99 85.923,337.127 93.311,346.004C96.999,350.434 100.905,354.86 104.722,359.136C108.565,363.431 112.549,367.603 116.682,371.631C124.913,379.726 133.737,387.247 143.124,394.119C145.466,395.845 147.857,397.509 150.283,399.128L157.721,404.023C162.661,407.356 167.637,410.622 172.545,414.011L171.061,416.732C165.554,414.44 160.115,412.024 154.638,409.676L146.465,406.026C143.703,404.771 140.96,403.459 138.251,402.074C127.402,396.551 117.079,389.932 107.29,382.594C102.411,378.903 97.662,375.034 93.042,371.014L89.62,367.955L86.296,364.862C84.083,362.795 81.898,360.682 79.72,358.555C75.367,354.29 71.134,349.856 67.009,345.228C62.905,340.578 58.882,335.754 55.166,330.478C51.462,325.188 47.946,319.54 45.174,312.877C43.804,309.544 42.614,305.927 41.939,301.904C41.264,297.899 41.116,293.41 42.005,288.794C42.864,284.18 44.908,279.588 47.614,275.849C50.317,272.082 53.551,269.101 56.799,266.743C60.062,264.363 63.389,262.553 66.662,261.027C68.304,260.252 69.932,259.586 71.561,258.941C72.37,258.641 73.187,258.316 73.992,258.04C74.792,257.755 75.604,257.471 76.493,257.19C79.722,256.171 82.545,255.365 85.468,254.522L94.094,252.076L111.208,247.326C116.886,245.735 122.54,244.128 128.132,242.479C133.707,240.839 139.305,239.185 144.489,237.422C147.047,236.538 149.56,235.647 151.054,234.853C153.124,233.834 155.03,232.712 156.736,231.511C160.154,229.098 162.741,226.458 164.449,223.539C166.158,220.624 167.225,217.374 167.602,213.482C167.957,209.608 167.698,205.196 166.778,200.564C164.966,191.265 161.002,181.332 156.115,171.67C153.665,166.822 150.979,161.996 148.095,157.235C145.244,152.453 142.202,147.727 139.018,143.065C135.837,138.401 132.488,133.823 129.087,129.272C127.379,127.001 125.644,124.752 123.875,122.517L118.384,115.695C111.081,106.697 103.556,97.907 95.725,89.464C87.916,80.995 79.779,72.896 71.33,65.245C62.878,57.608 54.012,50.526 44.78,44.269C35.56,38.013 25.902,32.598 15.972,28.803C6.074,25.005 -4.149,22.85 -13.72,23.566C-23.292,24.225 -32.083,27.832 -39.39,34.216C-46.708,40.575 -52.516,49.432 -56.769,59.289C-58.915,64.217 -60.729,69.386 -62.214,74.714C-62.977,77.393 -63.592,80.047 -64.231,82.704C-64.764,85.414 -65.347,88.11 -65.745,90.884C-66.229,93.627 -66.521,96.44 -66.889,99.23C-67.142,102.054 -67.48,104.86 -67.637,107.714C-68.081,113.391 -68.213,119.144 -68.31,124.902C-68.446,147.992 -66.4,171.376 -63.348,194.649C-57.201,241.248 -47.308,287.585 -35.932,333.514C-30.251,356.492 -24.121,379.378 -17.626,402.168C-11.161,424.963 -4.397,447.708 2.917,470.24L0,471.289Z" style="fill:rgb(165,40,37);fill-rule:nonzero;"/>
                </g>
                <g transform="matrix(0.521069,0,0,1.28977,179.635,215.256)">
                    <path d="M0,472.192C-7.136,450.126 -13.763,427.931 -20.125,405.635C-26.414,383.325 -32.387,360.916 -37.966,338.392C-43.556,315.87 -48.667,293.216 -53.303,270.434C-57.909,247.646 -62.04,224.725 -65.241,201.592C-68.395,178.455 -70.753,155.123 -71.314,131.463C-71.528,119.627 -71.356,107.713 -70.209,95.677C-69.093,83.672 -66.962,71.376 -63.053,59.537C-61.113,53.593 -58.763,47.7 -55.859,41.957C-52.903,36.237 -49.452,30.631 -45.184,25.454C-43.092,22.842 -40.726,20.393 -38.255,18.036C-35.751,15.701 -33.037,13.546 -30.183,11.557C-27.297,9.603 -24.246,7.866 -21.078,6.35C-17.887,4.879 -14.585,3.656 -11.219,2.675C-7.844,1.756 -4.421,1.049 -0.988,0.625C2.438,0.242 5.879,0 9.265,0.089C16.065,0.147 22.66,1.161 29.013,2.641C41.735,5.648 53.341,10.816 64.206,16.75C75.072,22.719 85.143,29.641 94.744,37C104.328,44.376 113.458,52.193 122.174,60.366C130.92,68.516 139.277,76.992 147.366,85.677C151.419,90.013 155.374,94.425 159.292,98.864C161.146,100.954 163.187,103.251 165.14,105.526C167.105,107.81 169.044,110.12 170.957,112.454C178.569,121.821 185.741,131.604 192.343,141.984C198.875,152.407 204.855,163.425 209.449,175.642C211.717,181.758 213.681,188.175 214.896,195.056C216.103,201.918 216.681,209.286 215.744,217.016C214.832,224.7 212.305,232.816 207.83,239.809C203.411,246.836 197.397,252.525 191.103,256.651C187.947,258.743 184.711,260.458 181.471,261.957C180.645,262.332 179.886,262.664 179.002,263.04L177.564,263.622L176.261,264.105C174.548,264.729 173.021,265.213 171.484,265.695C165.441,267.544 159.74,269.025 154.001,270.481C142.555,273.31 131.21,275.875 119.921,278.44C114.298,279.719 108.612,280.949 103.209,282.231C101.89,282.547 100.56,282.87 99.534,283.15C98.356,283.483 97.185,283.822 96.074,284.202C93.825,284.942 91.748,285.797 89.908,286.721C89.006,287.192 88.156,287.671 87.382,288.154C86.627,288.645 85.95,289.142 85.364,289.635C84.175,290.627 83.436,291.56 82.886,292.531C82.348,293.505 81.98,294.62 81.866,296.142C81.731,297.641 81.906,299.494 82.322,301.519C83.172,305.597 85.092,310.213 87.513,314.75C89.945,319.303 92.855,323.861 95.979,328.359C99.125,332.85 102.516,337.277 106.052,341.636C109.575,346.011 113.233,350.331 116.998,354.588C132.28,371.975 147.088,389.599 163.287,405.8L162.902,405.516C166.162,408.024 169.421,410.534 172.645,413.096C175.878,415.647 179.122,418.181 182.325,420.777L180.644,423.381C176.958,421.533 173.313,419.624 169.657,417.729C165.993,415.847 162.363,413.912 158.734,411.976L158.348,411.691C148.75,404.891 139.593,397.511 130.718,389.904C126.276,386.103 121.881,382.265 117.547,378.385C113.202,374.491 108.893,370.694 104.587,366.716C100.258,362.707 95.994,358.588 91.808,354.336C87.648,350.056 83.574,345.633 79.639,340.974C75.707,336.306 71.925,331.397 68.466,325.989C65.026,320.572 61.799,314.701 59.615,307.592C58.546,304.033 57.786,300.121 57.736,295.829C57.662,291.57 58.43,286.889 60.24,282.572C62.023,278.248 64.749,274.408 67.746,271.41C70.75,268.375 73.97,266.035 77.183,264.124C80.397,262.23 83.612,260.707 86.785,259.432C88.375,258.78 89.953,258.213 91.529,257.663C93.263,257.078 94.726,256.645 96.198,256.2C101.973,254.496 107.516,252.932 113.111,251.379C124.261,248.294 135.364,245.231 146.25,241.995C151.672,240.406 157.116,238.761 162.078,237.036C163.286,236.607 164.5,236.168 165.49,235.758L166.21,235.461L166.773,235.203L168.245,234.471C170.205,233.44 172.042,232.34 173.649,231.143C176.908,228.769 179.325,226.163 180.957,223.304C182.583,220.445 183.598,217.248 183.956,213.447C184.296,209.664 184.044,205.366 183.176,200.859C182.304,196.353 180.947,191.639 179.18,186.917C175.654,177.448 170.771,167.906 165.238,158.602C159.733,149.259 153.506,140.129 146.885,131.255C145.236,129.03 143.56,126.824 141.854,124.636C140.141,122.437 138.445,120.317 136.561,117.992C133.009,113.595 129.427,109.225 125.761,104.943C118.441,96.367 110.911,87.997 103.042,80.037C95.19,72.059 87.043,64.439 78.538,57.383C69.998,50.391 61.13,43.894 51.873,38.42C42.625,32.978 32.967,28.455 23.203,25.864C13.459,23.241 3.639,22.603 -5.223,24.837C-14.087,27.027 -21.983,32.186 -28.353,39.587C-31.564,43.247 -34.35,47.468 -36.836,51.948C-39.283,56.465 -41.381,61.289 -43.173,66.294C-46.769,76.364 -49.075,86.92 -50.528,97.897C-52,108.858 -52.604,120.113 -52.83,131.409C-53.158,154.041 -51.742,176.914 -49.508,199.731C-44.997,245.406 -37.281,290.956 -28.28,336.229C-23.781,358.876 -18.878,381.458 -13.653,403.972C-8.462,426.491 -2.998,448.978 2.969,471.299L0,472.192Z" style="fill:rgb(244,67,54);fill-rule:nonzero;"/>
                </g>
                <g transform="matrix(0.521069,0,0,1.28977,275.985,710.323)">
                    <path d="M0,40.978C-3.059,35.076 -5.981,29.89 -8.683,25.103C-10.027,22.71 -11.293,20.413 -12.496,18.161C-13.666,15.902 -14.803,13.692 -15.826,11.459L-6.412,9.774C-6.23,11.687 -6.088,13.601 -5.96,15.515C-5.814,17.429 -5.693,19.343 -5.604,21.257C-5.506,23.171 -5.389,25.085 -5.337,27L-5.148,32.744L-5.031,36.305L-8.394,38.084C-12.937,40.488 -17.517,42.816 -22.149,45.04C-24.478,46.131 -26.776,47.279 -29.128,48.322C-31.469,49.387 -33.808,50.456 -36.179,51.461L-39.344,41.589C-36.438,41.339 -33.505,41.21 -30.504,41.116C-27.499,41.033 -24.416,41.016 -21.197,41.027C-14.748,41.064 -7.802,41.127 0,40.978M0,40.978C-5.052,42.764 -10.959,44.762 -17.364,46.733C-20.573,47.711 -23.917,48.662 -27.339,49.547C-30.765,50.419 -34.26,51.258 -37.78,51.975L-67.452,58.022L-40.946,42.102C-38.738,40.777 -36.499,39.512 -34.261,38.246C-32.034,36.957 -29.755,35.772 -27.504,34.53C-22.98,32.09 -18.403,29.754 -13.789,27.493L-17.034,32.832L-16.932,27.087C-16.908,25.172 -16.82,23.256 -16.751,21.341C-16.689,19.425 -16.598,17.51 -16.48,15.594C-16.382,13.678 -16.268,11.762 -16.115,9.846L-13.971,-17.044L-6.701,8.162C-5.847,11.123 -5.106,14.107 -4.398,17.043C-3.725,19.986 -3.113,22.883 -2.581,25.686C-1.526,31.288 -0.695,36.491 0,40.978" style="fill:rgb(165,40,37);fill-rule:nonzero;"/>
                </g>
                <g transform="matrix(0.521069,0,0,1.28977,273.956,719.648)">
                    <path d="M0,30.834C-2.581,26.159 -5.01,22.19 -7.221,18.607C-8.321,16.817 -9.341,15.12 -10.306,13.468C-11.232,11.81 -12.129,10.198 -12.913,8.568L-3.461,7.111C-3.337,8.562 -3.257,10.011 -3.186,11.459C-3.097,12.908 -3.036,14.356 -3.004,15.805C-2.962,17.252 -2.905,18.7 -2.911,20.146L-2.895,24.486L-2.882,27.68L-5.892,29.475C-9.371,31.549 -12.892,33.551 -16.471,35.451C-18.271,36.38 -20.041,37.364 -21.869,38.247C-23.684,39.151 -25.498,40.059 -27.346,40.905L-30.896,31.178C-28.694,30.961 -26.461,30.863 -24.159,30.796C-21.854,30.74 -19.468,30.747 -16.951,30.777C-11.903,30.853 -6.374,30.947 0,30.834M0,30.834C-3.608,32.557 -8.062,34.487 -12.996,36.399C-15.47,37.349 -18.075,38.272 -20.761,39.136C-23.449,39.985 -26.207,40.806 -28.996,41.508L-56.58,48.448L-32.547,31.78C-30.876,30.621 -29.172,29.523 -27.468,28.423C-25.777,27.3 -24.028,26.278 -22.311,25.203C-18.853,23.093 -15.336,21.083 -11.777,19.147L-14.775,24.135L-14.502,19.804C-14.422,18.359 -14.279,16.917 -14.152,15.475C-14.034,14.031 -13.889,12.589 -13.715,11.147C-13.557,9.706 -13.392,8.265 -13.182,6.824L-9.63,-17.614L-3.73,5.367C-3.127,7.715 -2.637,10.082 -2.177,12.401C-1.754,14.727 -1.387,17.007 -1.102,19.194C-0.538,23.566 -0.193,27.554 0,30.834" style="fill:rgb(244,67,54);fill-rule:nonzero;"/>
                </g>
                <g transform="matrix(-0.515266,0.191958,0.0775511,1.27541,255.02,734.345)">
                    <path d="M-36.461,28.092L2.537,28.092L-26.711,18.344L-29.961,-4.405L-36.461,28.092Z" style="fill:rgb(165,40,37);fill-rule:nonzero;"/>
                </g>
                <g transform="matrix(-0.512469,0.233357,0.0942761,1.26849,257.615,739.429)">
                    <path d="M-28.038,20.915L2.41,20.915L-20.529,12.901L-24.173,-4.063L-28.038,20.915Z" style="fill:rgb(244,67,54);fill-rule:nonzero;"/>
                </g>
                <g transform="matrix(0.521069,0,0,1.28977,182.062,821.078)">
                    <path d="M0,4.247C-0.603,5.384 -1.18,6.569 -1.73,7.804C-2.281,9.039 -2.802,10.252 -3.295,11.441C-3.789,12.631 -4.185,13.819 -4.481,15.006C-4.78,16.193 -5.011,17.238 -5.175,18.14L-10.245,18.947C-9.616,15.8 -8.74,12.848 -7.622,10.091C-6.504,7.335 -5.31,4.615 -4.041,1.932L-24.329,-9.702L-18.608,-10.613L-2.814,-1.43L1.714,-13.851L7.057,-14.7L1.237,0.926C2.849,1.754 4.585,2.658 6.446,3.639C8.306,4.62 10.191,5.645 12.099,6.717C14.005,7.787 15.898,8.908 17.774,10.081C19.649,11.254 21.425,12.438 23.099,13.637L17.837,14.475C16.815,13.756 15.624,12.979 14.26,12.143C12.897,11.308 11.424,10.443 9.842,9.551C8.258,8.657 6.615,7.756 4.914,6.845C3.211,5.934 1.574,5.069 0,4.247Z" style="fill:rgb(165,40,37);fill-rule:nonzero;stroke:rgb(165,40,37);stroke-width:12.93px;"/>
                </g>
                <g transform="matrix(0.521069,0,0,1.28977,183.736,820.352)">
                    <path d="M0,4.292C-0.612,5.422 -1.201,6.602 -1.767,7.831C-2.333,9.061 -2.871,10.269 -3.38,11.454C-3.891,12.639 -4.309,13.823 -4.632,15.008C-4.958,16.193 -5.215,17.236 -5.403,18.137L-10.23,18.883C-9.52,15.739 -8.584,12.796 -7.426,10.05C-6.267,7.305 -5.039,4.596 -3.74,1.925L-22.517,-9.969L-17.069,-10.811L-2.458,-1.426L2.28,-13.805L7.368,-14.591L1.292,0.982C2.787,1.83 4.396,2.757 6.123,3.761C7.847,4.766 9.593,5.815 11.36,6.911C13.125,8.006 14.875,9.15 16.608,10.348C18.339,11.545 19.977,12.753 21.518,13.973L16.507,14.747C15.567,14.016 14.467,13.223 13.208,12.369C11.948,11.517 10.585,10.634 9.121,9.721C7.654,8.808 6.132,7.885 4.555,6.951C2.978,6.02 1.459,5.134 0,4.292Z" style="fill:rgb(244,67,54);fill-rule:nonzero;stroke:rgb(244,67,54);stroke-width:12.93px;"/>
                </g>
            </g>
        </g>
    </g>
</svg>
