<svg width="100%" height="100%" viewBox="0 0 996 226" version="1.1" xmlns="http://www.w3.org/2000/svg" xmlns:xlink="http://www.w3.org/1999/xlink" xml:space="preserve" xmlns:serif="http://www.serif.com/" style="fill-rule:evenodd;clip-rule:evenodd;stroke-miterlimit:10;">
    <rect id="Artboard2" x="0" y="0" width="996" height="226" style="fill:none;"/>
    <clipPath id="_clip1">
        <rect id="Artboard21" x="0" y="0" width="996" height="226"/>
    </clipPath>
    <g clip-path="url(#_clip1)">
        <g>
            <path d="M191.224,107.304c8.8,-0 15.532,1.613 20.196,4.84c4.664,3.227 6.996,8.155 6.996,14.784c-0,8.272 -4.077,13.875 -12.232,16.808c1.115,1.349 2.376,2.992 3.784,4.928c1.408,1.936 2.845,4.033 4.312,6.292c1.467,2.259 2.875,4.576 4.224,6.952c1.349,2.376 2.552,4.708 3.608,6.996l-12.408,-0c-1.115,-2.112 -2.317,-4.239 -3.608,-6.38c-1.291,-2.141 -2.596,-4.224 -3.916,-6.248c-1.32,-2.024 -2.625,-3.931 -3.916,-5.72c-1.291,-1.789 -2.493,-3.388 -3.608,-4.796c-0.821,0.059 -1.525,0.088 -2.112,0.088l-7.04,-0l-0,23.056l-11.088,-0l-0,-60.104c2.699,-0.587 5.573,-0.983 8.624,-1.188c3.051,-0.205 5.779,-0.308 8.184,-0.308Zm0.792,9.592c-2.347,-0 -4.517,0.088 -6.512,0.264l-0,19.712l4.84,-0c2.699,-0 5.075,-0.147 7.128,-0.44c2.053,-0.293 3.769,-0.821 5.148,-1.584c1.379,-0.763 2.42,-1.789 3.124,-3.08c0.704,-1.291 1.056,-2.933 1.056,-4.928c-0,-1.877 -0.352,-3.461 -1.056,-4.752c-0.704,-1.291 -1.716,-2.317 -3.036,-3.08c-1.32,-0.763 -2.889,-1.305 -4.708,-1.628c-1.819,-0.323 -3.813,-0.484 -5.984,-0.484Z" style="fill:#424242;fill-rule:nonzero;"/>
            <path d="M271.832,145.848c-0,3.637 -0.528,6.952 -1.584,9.944c-1.056,2.992 -2.552,5.544 -4.488,7.656c-1.936,2.112 -4.268,3.755 -6.996,4.928c-2.728,1.173 -5.735,1.76 -9.02,1.76c-3.285,-0 -6.277,-0.587 -8.976,-1.76c-2.699,-1.173 -5.016,-2.816 -6.952,-4.928c-1.936,-2.112 -3.447,-4.664 -4.532,-7.656c-1.085,-2.992 -1.628,-6.307 -1.628,-9.944c-0,-3.637 0.543,-6.937 1.628,-9.9c1.085,-2.963 2.611,-5.5 4.576,-7.612c1.965,-2.112 4.297,-3.74 6.996,-4.884c2.699,-1.144 5.661,-1.716 8.888,-1.716c3.227,-0 6.204,0.572 8.932,1.716c2.728,1.144 5.06,2.772 6.996,4.884c1.936,2.112 3.447,4.649 4.532,7.612c1.085,2.963 1.628,6.263 1.628,9.9Zm-10.912,-0c-0,-4.576 -0.983,-8.199 -2.948,-10.868c-1.965,-2.669 -4.708,-4.004 -8.228,-4.004c-3.52,-0 -6.263,1.335 -8.228,4.004c-1.965,2.669 -2.948,6.292 -2.948,10.868c-0,4.635 0.983,8.301 2.948,11c1.965,2.699 4.708,4.048 8.228,4.048c3.52,-0 6.263,-1.349 8.228,-4.048c1.965,-2.699 2.948,-6.365 2.948,-11Z" style="fill:#424242;fill-rule:nonzero;"/>
            <path d="M320.584,167.496c-2.053,0.528 -4.723,1.071 -8.008,1.628c-3.285,0.557 -6.893,0.836 -10.824,0.836c-3.696,-0 -6.791,-0.528 -9.284,-1.584c-2.493,-1.056 -4.488,-2.523 -5.984,-4.4c-1.496,-1.877 -2.567,-4.121 -3.212,-6.732c-0.645,-2.611 -0.968,-5.471 -0.968,-8.58l-0,-25.784l10.648,-0l-0,24.112c-0,4.928 0.719,8.448 2.156,10.56c1.437,2.112 3.945,3.168 7.524,3.168c1.291,-0 2.655,-0.059 4.092,-0.176c1.437,-0.117 2.508,-0.264 3.212,-0.44l-0,-37.224l10.648,-0l-0,44.616Z" style="fill:#424242;fill-rule:nonzero;"/>
            <path d="M333.608,110.736l10.648,-1.76l-0,13.904l16.368,-0l-0,8.888l-16.368,-0l-0,18.744c-0,3.696 0.587,6.336 1.76,7.92c1.173,1.584 3.168,2.376 5.984,2.376c1.936,-0 3.652,-0.205 5.148,-0.616c1.496,-0.411 2.684,-0.792 3.564,-1.144l1.76,8.448c-1.232,0.528 -2.845,1.071 -4.84,1.628c-1.995,0.557 -4.341,0.836 -7.04,0.836c-3.285,-0 -6.028,-0.44 -8.228,-1.32c-2.2,-0.88 -3.945,-2.156 -5.236,-3.828c-1.291,-1.672 -2.2,-3.696 -2.728,-6.072c-0.528,-2.376 -0.792,-5.089 -0.792,-8.14l-0,-39.864Z" style="fill:#424242;fill-rule:nonzero;"/>
            <path d="M367.576,146.112c-0,-4.048 0.601,-7.597 1.804,-10.648c1.203,-3.051 2.801,-5.588 4.796,-7.612c1.995,-2.024 4.283,-3.549 6.864,-4.576c2.581,-1.027 5.221,-1.54 7.92,-1.54c6.336,-0 11.279,1.965 14.828,5.896c3.549,3.931 5.324,9.797 5.324,17.6c-0,0.587 -0.015,1.247 -0.044,1.98c-0.029,0.733 -0.073,1.393 -0.132,1.98l-30.36,-0c0.293,3.696 1.599,6.556 3.916,8.58c2.317,2.024 5.676,3.036 10.076,3.036c2.581,-0 4.943,-0.235 7.084,-0.704c2.141,-0.469 3.828,-0.968 5.06,-1.496l1.408,8.712c-0.587,0.293 -1.393,0.601 -2.42,0.924c-1.027,0.323 -2.2,0.616 -3.52,0.88c-1.32,0.264 -2.743,0.484 -4.268,0.66c-1.525,0.176 -3.08,0.264 -4.664,0.264c-4.048,-0 -7.568,-0.601 -10.56,-1.804c-2.992,-1.203 -5.456,-2.875 -7.392,-5.016c-1.936,-2.141 -3.373,-4.664 -4.312,-7.568c-0.939,-2.904 -1.408,-6.087 -1.408,-9.548Zm30.888,-4.752c-0,-1.467 -0.205,-2.86 -0.616,-4.18c-0.411,-1.32 -1.012,-2.464 -1.804,-3.432c-0.792,-0.968 -1.76,-1.731 -2.904,-2.288c-1.144,-0.557 -2.508,-0.836 -4.092,-0.836c-1.643,-0 -3.08,0.308 -4.312,0.924c-1.232,0.616 -2.273,1.423 -3.124,2.42c-0.851,0.997 -1.511,2.141 -1.98,3.432c-0.469,1.291 -0.792,2.611 -0.968,3.96l19.8,-0Z" style="fill:#424242;fill-rule:nonzero;"/>
            <rect x="413.6" y="174.272" width="44" height="10.912" style="fill:#a52825;fill-rule:nonzero;"/>
            <path d="M507.408,107.92l-0,9.592l-18.744,-0l-0,51.392l-11.176,-0l-0,-51.392l-18.744,-0l-0,-9.592l48.664,-0Z" style="fill:#424242;fill-rule:nonzero;"/>
            <path d="M507.936,146.112c-0,-4.048 0.601,-7.597 1.804,-10.648c1.203,-3.051 2.801,-5.588 4.796,-7.612c1.995,-2.024 4.283,-3.549 6.864,-4.576c2.581,-1.027 5.221,-1.54 7.92,-1.54c6.336,-0 11.279,1.965 14.828,5.896c3.549,3.931 5.324,9.797 5.324,17.6c-0,0.587 -0.015,1.247 -0.044,1.98c-0.029,0.733 -0.073,1.393 -0.132,1.98l-30.36,-0c0.293,3.696 1.599,6.556 3.916,8.58c2.317,2.024 5.676,3.036 10.076,3.036c2.581,-0 4.943,-0.235 7.084,-0.704c2.141,-0.469 3.828,-0.968 5.06,-1.496l1.408,8.712c-0.587,0.293 -1.393,0.601 -2.42,0.924c-1.027,0.323 -2.2,0.616 -3.52,0.88c-1.32,0.264 -2.743,0.484 -4.268,0.66c-1.525,0.176 -3.08,0.264 -4.664,0.264c-4.048,-0 -7.568,-0.601 -10.56,-1.804c-2.992,-1.203 -5.456,-2.875 -7.392,-5.016c-1.936,-2.141 -3.373,-4.664 -4.312,-7.568c-0.939,-2.904 -1.408,-6.087 -1.408,-9.548Zm30.888,-4.752c-0,-1.467 -0.205,-2.86 -0.616,-4.18c-0.411,-1.32 -1.012,-2.464 -1.804,-3.432c-0.792,-0.968 -1.76,-1.731 -2.904,-2.288c-1.144,-0.557 -2.508,-0.836 -4.092,-0.836c-1.643,-0 -3.08,0.308 -4.312,0.924c-1.232,0.616 -2.273,1.423 -3.124,2.42c-0.851,0.997 -1.511,2.141 -1.98,3.432c-0.469,1.291 -0.792,2.611 -0.968,3.96l19.8,-0Z" style="fill:#424242;fill-rule:nonzero;"/>
            <path d="M558.184,145.936c-0,-3.403 0.528,-6.585 1.584,-9.548c1.056,-2.963 2.567,-5.529 4.532,-7.7c1.965,-2.171 4.356,-3.872 7.172,-5.104c2.816,-1.232 5.984,-1.848 9.504,-1.848c4.341,-0 8.448,0.792 12.32,2.376l-2.288,8.712c-1.232,-0.528 -2.625,-0.968 -4.18,-1.32c-1.555,-0.352 -3.212,-0.528 -4.972,-0.528c-4.165,-0 -7.333,1.305 -9.504,3.916c-2.171,2.611 -3.256,6.292 -3.256,11.044c-0,4.576 1.027,8.199 3.08,10.868c2.053,2.669 5.515,4.004 10.384,4.004c1.819,-0 3.608,-0.176 5.368,-0.528c1.76,-0.352 3.285,-0.792 4.576,-1.32l1.496,8.8c-1.173,0.587 -2.948,1.115 -5.324,1.584c-2.376,0.469 -4.825,0.704 -7.348,0.704c-3.931,-0 -7.348,-0.601 -10.252,-1.804c-2.904,-1.203 -5.309,-2.875 -7.216,-5.016c-1.907,-2.141 -3.329,-4.693 -4.268,-7.656c-0.939,-2.963 -1.408,-6.175 -1.408,-9.636Z" style="fill:#424242;fill-rule:nonzero;"/>
            <path d="M602.272,168.904l-0,-66.528l10.648,-1.76l-0,22.792c1.173,-0.411 2.537,-0.763 4.092,-1.056c1.555,-0.293 3.095,-0.44 4.62,-0.44c3.696,-0 6.761,0.513 9.196,1.54c2.435,1.027 4.385,2.464 5.852,4.312c1.467,1.848 2.508,4.063 3.124,6.644c0.616,2.581 0.924,5.456 0.924,8.624l-0,25.872l-10.648,-0l-0,-24.2c-0,-2.464 -0.161,-4.561 -0.484,-6.292c-0.323,-1.731 -0.851,-3.139 -1.584,-4.224c-0.733,-1.085 -1.716,-1.877 -2.948,-2.376c-1.232,-0.499 -2.757,-0.748 -4.576,-0.748c-1.408,-0 -2.845,0.147 -4.312,0.44c-1.467,0.293 -2.552,0.557 -3.256,0.792l-0,36.608l-10.648,-0Z" style="fill:#424242;fill-rule:nonzero;"/>
            <path d="M653.488,124.376c2.053,-0.587 4.723,-1.144 8.008,-1.672c3.285,-0.528 6.923,-0.792 10.912,-0.792c3.755,-0 6.893,0.513 9.416,1.54c2.523,1.027 4.532,2.464 6.028,4.312c1.496,1.848 2.552,4.077 3.168,6.688c0.616,2.611 0.924,5.471 0.924,8.58l-0,25.872l-10.648,-0l-0,-24.2c-0,-2.464 -0.161,-4.561 -0.484,-6.292c-0.323,-1.731 -0.851,-3.139 -1.584,-4.224c-0.733,-1.085 -1.731,-1.877 -2.992,-2.376c-1.261,-0.499 -2.801,-0.748 -4.62,-0.748c-1.349,-0 -2.757,0.088 -4.224,0.264c-1.467,0.176 -2.552,0.323 -3.256,0.44l-0,37.136l-10.648,-0l-0,-44.528Z" style="fill:#424242;fill-rule:nonzero;"/>
            <path d="M746.592,145.848c-0,3.637 -0.528,6.952 -1.584,9.944c-1.056,2.992 -2.552,5.544 -4.488,7.656c-1.936,2.112 -4.268,3.755 -6.996,4.928c-2.728,1.173 -5.735,1.76 -9.02,1.76c-3.285,-0 -6.277,-0.587 -8.976,-1.76c-2.699,-1.173 -5.016,-2.816 -6.952,-4.928c-1.936,-2.112 -3.447,-4.664 -4.532,-7.656c-1.085,-2.992 -1.628,-6.307 -1.628,-9.944c-0,-3.637 0.543,-6.937 1.628,-9.9c1.085,-2.963 2.611,-5.5 4.576,-7.612c1.965,-2.112 4.297,-3.74 6.996,-4.884c2.699,-1.144 5.661,-1.716 8.888,-1.716c3.227,-0 6.204,0.572 8.932,1.716c2.728,1.144 5.06,2.772 6.996,4.884c1.936,2.112 3.447,4.649 4.532,7.612c1.085,2.963 1.628,6.263 1.628,9.9Zm-10.912,-0c-0,-4.576 -0.983,-8.199 -2.948,-10.868c-1.965,-2.669 -4.708,-4.004 -8.228,-4.004c-3.52,-0 -6.263,1.335 -8.228,4.004c-1.965,2.669 -2.948,6.292 -2.948,10.868c-0,4.635 0.983,8.301 2.948,11c1.965,2.699 4.708,4.048 8.228,4.048c3.52,-0 6.263,-1.349 8.228,-4.048c1.965,-2.699 2.948,-6.365 2.948,-11Z" style="fill:#424242;fill-rule:nonzero;"/>
            <path d="M773.608,169.784c-3.168,-0.059 -5.793,-0.411 -7.876,-1.056c-2.083,-0.645 -3.74,-1.569 -4.972,-2.772c-1.232,-1.203 -2.097,-2.699 -2.596,-4.488c-0.499,-1.789 -0.748,-3.828 -0.748,-6.116l-0,-52.976l10.648,-1.76l-0,52.712c-0,1.291 0.103,2.376 0.308,3.256c0.205,0.88 0.572,1.628 1.1,2.244c0.528,0.616 1.247,1.085 2.156,1.408c0.909,0.323 2.068,0.572 3.476,0.748l-1.496,8.8Z" style="fill:#424242;fill-rule:nonzero;"/>
            <path d="M825.352,145.848c-0,3.637 -0.528,6.952 -1.584,9.944c-1.056,2.992 -2.552,5.544 -4.488,7.656c-1.936,2.112 -4.268,3.755 -6.996,4.928c-2.728,1.173 -5.735,1.76 -9.02,1.76c-3.285,-0 -6.277,-0.587 -8.976,-1.76c-2.699,-1.173 -5.016,-2.816 -6.952,-4.928c-1.936,-2.112 -3.447,-4.664 -4.532,-7.656c-1.085,-2.992 -1.628,-6.307 -1.628,-9.944c-0,-3.637 0.543,-6.937 1.628,-9.9c1.085,-2.963 2.611,-5.5 4.576,-7.612c1.965,-2.112 4.297,-3.74 6.996,-4.884c2.699,-1.144 5.661,-1.716 8.888,-1.716c3.227,-0 6.204,0.572 8.932,1.716c2.728,1.144 5.06,2.772 6.996,4.884c1.936,2.112 3.447,4.649 4.532,7.612c1.085,2.963 1.628,6.263 1.628,9.9Zm-10.912,-0c-0,-4.576 -0.983,-8.199 -2.948,-10.868c-1.965,-2.669 -4.708,-4.004 -8.228,-4.004c-3.52,-0 -6.263,1.335 -8.228,4.004c-1.965,2.669 -2.948,6.292 -2.948,10.868c-0,4.635 0.983,8.301 2.948,11c1.965,2.699 4.708,4.048 8.228,4.048c3.52,-0 6.263,-1.349 8.228,-4.048c1.965,-2.699 2.948,-6.365 2.948,-11Z" style="fill:#424242;fill-rule:nonzero;"/>
            <path d="M844.712,144.704c-0,4.517 0.983,7.817 2.948,9.9c1.965,2.083 4.503,3.124 7.612,3.124c1.701,-0 3.3,-0.235 4.796,-0.704c1.496,-0.469 2.713,-1.027 3.652,-1.672l-0,-23.848c-0.763,-0.176 -1.701,-0.337 -2.816,-0.484c-1.115,-0.147 -2.523,-0.22 -4.224,-0.22c-3.872,-0 -6.835,1.276 -8.888,3.828c-2.053,2.552 -3.08,5.911 -3.08,10.076Zm29.656,19.536c-0,7.333 -1.863,12.701 -5.588,16.104c-3.725,3.403 -9.431,5.104 -17.116,5.104c-2.816,-0 -5.559,-0.235 -8.228,-0.704c-2.669,-0.469 -5.089,-1.085 -7.26,-1.848l1.936,-9.064c1.819,0.763 3.887,1.379 6.204,1.848c2.317,0.469 4.825,0.704 7.524,0.704c4.283,-0 7.333,-0.88 9.152,-2.64c1.819,-1.76 2.728,-4.371 2.728,-7.832l-0,-1.76c-1.056,0.528 -2.449,1.056 -4.18,1.584c-1.731,0.528 -3.711,0.792 -5.94,0.792c-2.933,-0 -5.617,-0.469 -8.052,-1.408c-2.435,-0.939 -4.517,-2.317 -6.248,-4.136c-1.731,-1.819 -3.08,-4.092 -4.048,-6.82c-0.968,-2.728 -1.452,-5.881 -1.452,-9.46c-0,-3.344 0.513,-6.424 1.54,-9.24c1.027,-2.816 2.523,-5.221 4.488,-7.216c1.965,-1.995 4.356,-3.549 7.172,-4.664c2.816,-1.115 6.013,-1.672 9.592,-1.672c3.461,-0 6.747,0.264 9.856,0.792c3.109,0.528 5.749,1.085 7.92,1.672l-0,39.864Z" style="fill:#424242;fill-rule:nonzero;"/>
            <path d="M898.656,168.904l-10.648,-0l-0,-46.024l10.648,-0l-0,46.024Zm1.144,-59.488c-0,1.995 -0.645,3.579 -1.936,4.752c-1.291,1.173 -2.816,1.76 -4.576,1.76c-1.819,-0 -3.373,-0.587 -4.664,-1.76c-1.291,-1.173 -1.936,-2.757 -1.936,-4.752c-0,-2.053 0.645,-3.667 1.936,-4.84c1.291,-1.173 2.845,-1.76 4.664,-1.76c1.76,-0 3.285,0.587 4.576,1.76c1.291,1.173 1.936,2.787 1.936,4.84Z" style="fill:#424242;fill-rule:nonzero;"/>
            <path d="M909.656,146.112c-0,-4.048 0.601,-7.597 1.804,-10.648c1.203,-3.051 2.801,-5.588 4.796,-7.612c1.995,-2.024 4.283,-3.549 6.864,-4.576c2.581,-1.027 5.221,-1.54 7.92,-1.54c6.336,-0 11.279,1.965 14.828,5.896c3.549,3.931 5.324,9.797 5.324,17.6c-0,0.587 -0.015,1.247 -0.044,1.98c-0.029,0.733 -0.073,1.393 -0.132,1.98l-30.36,-0c0.293,3.696 1.599,6.556 3.916,8.58c2.317,2.024 5.676,3.036 10.076,3.036c2.581,-0 4.943,-0.235 7.084,-0.704c2.141,-0.469 3.828,-0.968 5.06,-1.496l1.408,8.712c-0.587,0.293 -1.393,0.601 -2.42,0.924c-1.027,0.323 -2.2,0.616 -3.52,0.88c-1.32,0.264 -2.743,0.484 -4.268,0.66c-1.525,0.176 -3.08,0.264 -4.664,0.264c-4.048,-0 -7.568,-0.601 -10.56,-1.804c-2.992,-1.203 -5.456,-2.875 -7.392,-5.016c-1.936,-2.141 -3.373,-4.664 -4.312,-7.568c-0.939,-2.904 -1.408,-6.087 -1.408,-9.548Zm30.888,-4.752c-0,-1.467 -0.205,-2.86 -0.616,-4.18c-0.411,-1.32 -1.012,-2.464 -1.804,-3.432c-0.792,-0.968 -1.76,-1.731 -2.904,-2.288c-1.144,-0.557 -2.508,-0.836 -4.092,-0.836c-1.643,-0 -3.08,0.308 -4.312,0.924c-1.232,0.616 -2.273,1.423 -3.124,2.42c-0.851,0.997 -1.511,2.141 -1.98,3.432c-0.469,1.291 -0.792,2.611 -0.968,3.96l19.8,-0Z" style="fill:#424242;fill-rule:nonzero;"/>
            <path d="M973.984,161.248c2.816,-0 4.869,-0.337 6.16,-1.012c1.291,-0.675 1.936,-1.833 1.936,-3.476c-0,-1.525 -0.689,-2.787 -2.068,-3.784c-1.379,-0.997 -3.652,-2.083 -6.82,-3.256c-1.936,-0.704 -3.711,-1.452 -5.324,-2.244c-1.613,-0.792 -3.007,-1.716 -4.18,-2.772c-1.173,-1.056 -2.097,-2.332 -2.772,-3.828c-0.675,-1.496 -1.012,-3.329 -1.012,-5.5c-0,-4.224 1.555,-7.553 4.664,-9.988c3.109,-2.435 7.333,-3.652 12.672,-3.652c2.699,-0 5.28,0.249 7.744,0.748c2.464,0.499 4.312,0.983 5.544,1.452l-1.936,8.624c-1.173,-0.528 -2.669,-1.012 -4.488,-1.452c-1.819,-0.44 -3.931,-0.66 -6.336,-0.66c-2.171,-0 -3.931,0.367 -5.28,1.1c-1.349,0.733 -2.024,1.863 -2.024,3.388c-0,0.763 0.132,1.437 0.396,2.024c0.264,0.587 0.719,1.129 1.364,1.628c0.645,0.499 1.496,0.997 2.552,1.496c1.056,0.499 2.347,1.012 3.872,1.54c2.523,0.939 4.664,1.863 6.424,2.772c1.76,0.909 3.212,1.936 4.356,3.08c1.144,1.144 1.98,2.449 2.508,3.916c0.528,1.467 0.792,3.227 0.792,5.28c-0,4.4 -1.628,7.729 -4.884,9.988c-3.256,2.259 -7.905,3.388 -13.948,3.388c-4.048,-0 -7.304,-0.337 -9.768,-1.012c-2.464,-0.675 -4.195,-1.217 -5.192,-1.628l1.848,-8.888c1.584,0.645 3.476,1.261 5.676,1.848c2.2,0.587 4.708,0.88 7.524,0.88Z" style="fill:#424242;fill-rule:nonzero;"/>
        </g>
        <g>
            <path d="M38.244,207.798c-7.031,-18.474 -13.324,-37.213 -18.97,-56.181c-2.817,-9.485 -5.427,-19.039 -7.798,-28.667c-2.358,-9.632 -4.495,-19.338 -6.165,-29.166c-1.666,-9.827 -2.931,-19.771 -3.257,-29.907c-0.055,-2.538 -0.092,-5.081 0.01,-7.646c0.023,-1.279 0.125,-2.568 0.194,-3.854c0.118,-1.291 0.206,-2.58 0.381,-3.878c0.138,-1.295 0.363,-2.597 0.572,-3.899l0.391,-1.957c0.127,-0.655 0.3,-1.283 0.449,-1.925c0.636,-2.556 1.441,-5.098 2.448,-7.602c1.004,-2.504 2.22,-4.97 3.734,-7.325c0.364,-0.594 0.781,-1.166 1.181,-1.745c0.43,-0.563 0.839,-1.14 1.307,-1.684c0.897,-1.11 1.906,-2.155 2.972,-3.149c2.146,-1.977 4.648,-3.675 7.385,-4.896c2.73,-1.234 5.674,-1.984 8.595,-2.275c1.465,-0.167 2.92,-0.175 4.363,-0.141c1.438,0.061 2.862,0.193 4.256,0.414c2.796,0.422 5.469,1.162 8.043,2.056c5.146,1.809 9.855,4.305 14.276,7.089c2.21,1.398 4.349,2.874 6.428,4.412c2.07,1.547 4.09,3.141 6.07,4.773c1.971,1.64 3.893,3.327 5.779,5.045c1.87,1.73 3.725,3.477 5.521,5.27c3.614,3.57 7.072,7.268 10.422,11.045l2.491,2.816c0.843,0.965 1.678,1.945 2.499,2.933c1.65,1.974 3.226,4.012 4.762,6.092c1.534,2.083 3.018,4.217 4.438,6.417c1.405,2.209 2.752,4.481 3.996,6.848c1.236,2.371 2.396,4.826 3.379,7.423c0.979,2.597 1.832,5.322 2.361,8.247c0.529,2.917 0.782,6.058 0.375,9.354c-0.207,1.645 -0.57,3.322 -1.145,4.967c-0.572,1.644 -1.347,3.253 -2.317,4.723c-1.926,2.968 -4.531,5.323 -7.229,7.017c-1.353,0.853 -2.735,1.565 -4.118,2.165c-1.616,0.715 -2.929,1.095 -4.208,1.491c-2.547,0.757 -4.975,1.385 -7.418,1.991c-2.438,0.597 -4.862,1.166 -7.281,1.723l-7.233,1.65l-3.585,0.802c-1.172,0.267 -2.388,0.546 -3.414,0.807c-1.976,0.509 -3.913,1.245 -5.251,2.079c-0.682,0.412 -1.194,0.846 -1.554,1.252c-0.359,0.413 -0.586,0.788 -0.738,1.286c-0.149,0.495 -0.219,1.132 -0.151,1.906c0.068,0.77 0.248,1.654 0.545,2.576c0.587,1.851 1.567,3.825 2.708,5.759c2.3,3.895 5.222,7.693 8.293,11.384c1.533,1.842 3.157,3.682 4.744,5.459c1.598,1.786 3.254,3.52 4.972,5.195c3.422,3.365 7.091,6.492 10.993,9.349c0.974,0.717 1.968,1.409 2.976,2.082l3.093,2.035c2.053,1.386 4.122,2.744 6.163,4.153l-0.617,1.131c-2.29,-0.953 -4.551,-1.957 -6.828,-2.934l-3.398,-1.517c-1.148,-0.522 -2.288,-1.067 -3.415,-1.643c-4.51,-2.296 -8.802,-5.048 -12.871,-8.098c-2.029,-1.535 -4.003,-3.143 -5.924,-4.815l-1.422,-1.271l-1.382,-1.286c-0.92,-0.86 -1.829,-1.738 -2.734,-2.622c-1.81,-1.773 -3.57,-3.617 -5.284,-5.541c-1.707,-1.933 -3.379,-3.938 -4.924,-6.132c-1.54,-2.199 -3.002,-4.547 -4.154,-7.317c-0.57,-1.386 -1.064,-2.89 -1.345,-4.562c-0.281,-1.665 -0.342,-3.531 0.028,-5.45c0.357,-1.919 1.206,-3.828 2.331,-5.382c1.124,-1.566 2.469,-2.805 3.819,-3.786c1.356,-0.989 2.74,-1.742 4.1,-2.376c0.683,-0.322 1.36,-0.599 2.037,-0.867c0.336,-0.125 0.676,-0.26 1.011,-0.375c0.332,-0.118 0.67,-0.236 1.039,-0.353c1.343,-0.424 2.516,-0.759 3.732,-1.109l3.586,-1.017l7.115,-1.975c2.36,-0.661 4.711,-1.33 7.036,-2.015c2.317,-0.682 4.645,-1.37 6.8,-2.102c1.063,-0.368 2.108,-0.738 2.729,-1.068c0.861,-0.424 1.653,-0.891 2.362,-1.39c1.421,-1.003 2.497,-2.101 3.207,-3.314c0.71,-1.212 1.154,-2.563 1.311,-4.181c0.147,-1.611 0.039,-3.445 -0.343,-5.371c-0.753,-3.866 -2.401,-7.995 -4.433,-12.012c-1.019,-2.015 -2.135,-4.022 -3.334,-6.001c-1.185,-1.988 -2.45,-3.953 -3.774,-5.891c-1.322,-1.939 -2.715,-3.842 -4.128,-5.734c-0.711,-0.944 -1.432,-1.879 -2.167,-2.808l-2.283,-2.837c-3.036,-3.74 -6.165,-7.395 -9.42,-10.905c-3.247,-3.521 -6.63,-6.888 -10.142,-10.068c-3.514,-3.175 -7.2,-6.12 -11.038,-8.721c-3.833,-2.601 -7.848,-4.852 -11.976,-6.43c-4.115,-1.579 -8.365,-2.474 -12.344,-2.177c-3.98,0.274 -7.634,1.774 -10.672,4.428c-3.043,2.643 -5.457,6.326 -7.225,10.423c-0.892,2.049 -1.647,4.198 -2.264,6.413c-0.317,1.114 -0.573,2.217 -0.838,3.322c-0.222,1.127 -0.464,2.247 -0.63,3.401c-0.201,1.14 -0.322,2.309 -0.475,3.469c-0.106,1.174 -0.246,2.341 -0.311,3.527c-0.185,2.361 -0.24,4.752 -0.28,7.146c-0.057,9.599 0.794,19.321 2.063,28.996c2.555,19.373 6.668,38.637 11.397,57.731c2.362,9.553 4.911,19.068 7.611,28.542c2.688,9.477 5.5,18.933 8.54,28.3l-1.212,0.436Z" style="fill:#a52825;fill-rule:nonzero;"/>
            <path d="M37.612,207.716c-2.967,-9.174 -5.722,-18.401 -8.367,-27.67c-2.614,-9.275 -5.098,-18.592 -7.417,-27.956c-2.324,-9.363 -4.449,-18.781 -6.376,-28.252c-1.915,-9.474 -3.632,-19.003 -4.963,-28.62c-1.311,-9.619 -2.292,-19.319 -2.525,-29.155c-0.089,-4.921 -0.017,-9.874 0.46,-14.878c0.464,-4.99 1.349,-10.102 2.975,-15.024c0.806,-2.471 1.783,-4.921 2.99,-7.309c1.229,-2.378 2.664,-4.708 4.438,-6.861c0.87,-1.086 1.854,-2.104 2.881,-3.084c1.041,-0.97 2.169,-1.866 3.356,-2.693c1.2,-0.813 2.468,-1.535 3.785,-2.165c1.327,-0.611 2.699,-1.12 4.099,-1.528c1.403,-0.382 2.826,-0.676 4.253,-0.852c1.424,-0.159 2.855,-0.26 4.263,-0.223c2.827,0.024 5.568,0.446 8.21,1.061c5.289,1.25 10.114,3.399 14.631,5.866c4.517,2.481 8.704,5.359 12.695,8.418c3.985,3.067 7.78,6.317 11.404,9.714c3.636,3.389 7.11,6.912 10.473,10.523c1.685,1.803 3.329,3.637 4.958,5.482c0.771,0.869 1.619,1.824 2.431,2.77c0.817,0.95 1.623,1.91 2.419,2.88c3.164,3.894 6.146,7.962 8.891,12.277c2.715,4.333 5.201,8.914 7.111,13.993c0.943,2.542 1.759,5.21 2.265,8.071c0.501,2.852 0.742,5.916 0.352,9.129c-0.379,3.195 -1.43,6.569 -3.29,9.476c-1.837,2.921 -4.337,5.287 -6.954,7.002c-1.312,0.87 -2.657,1.583 -4.004,2.206c-0.344,0.156 -0.659,0.294 -1.027,0.45l-0.598,0.242l-0.541,0.201c-0.712,0.259 -1.347,0.46 -1.986,0.661c-2.513,0.768 -4.883,1.384 -7.269,1.989c-4.758,1.177 -9.475,2.243 -14.168,3.309c-2.337,0.532 -4.701,1.043 -6.948,1.576c-0.548,0.132 -1.101,0.266 -1.527,0.382c-0.49,0.139 -0.977,0.28 -1.439,0.438c-0.935,0.307 -1.798,0.663 -2.563,1.047c-0.375,0.196 -0.729,0.395 -1.05,0.596c-0.314,0.204 -0.596,0.411 -0.839,0.615c-0.495,0.413 -0.802,0.801 -1.031,1.204c-0.223,0.405 -0.376,0.869 -0.424,1.502c-0.056,0.623 0.017,1.393 0.19,2.235c0.353,1.695 1.152,3.614 2.158,5.501c1.011,1.892 2.221,3.787 3.52,5.657c1.308,1.867 2.717,3.708 4.187,5.52c1.465,1.819 2.986,3.615 4.551,5.385c6.353,7.228 12.509,14.555 19.244,21.29l-0.16,-0.118c1.355,1.043 2.71,2.086 4.05,3.151c1.344,1.061 2.693,2.114 4.025,3.194l-0.699,1.082c-1.533,-0.768 -3.048,-1.562 -4.568,-2.349c-1.523,-0.783 -3.032,-1.587 -4.541,-2.392l-0.16,-0.119c-3.991,-2.827 -7.797,-5.895 -11.487,-9.057c-1.847,-1.58 -3.674,-3.176 -5.476,-4.789c-1.806,-1.619 -3.598,-3.197 -5.388,-4.851c-1.799,-1.667 -3.572,-3.379 -5.312,-5.147c-1.73,-1.779 -3.424,-3.618 -5.059,-5.555c-1.635,-1.941 -3.207,-3.982 -4.645,-6.23c-1.431,-2.252 -2.772,-4.693 -3.68,-7.648c-0.445,-1.48 -0.76,-3.106 -0.781,-4.89c-0.031,-1.771 0.288,-3.717 1.041,-5.512c0.741,-1.797 1.874,-3.394 3.12,-4.64c1.249,-1.262 2.588,-2.235 3.924,-3.029c1.336,-0.788 2.672,-1.421 3.991,-1.951c0.661,-0.271 1.317,-0.507 1.973,-0.735c0.721,-0.244 1.329,-0.424 1.941,-0.609c2.401,-0.708 4.705,-1.358 7.031,-2.004c4.635,-1.282 9.251,-2.556 13.777,-3.901c2.254,-0.661 4.517,-1.345 6.58,-2.062c0.503,-0.178 1.007,-0.361 1.419,-0.531l0.299,-0.124l0.234,-0.107l0.612,-0.304c0.815,-0.429 1.579,-0.886 2.247,-1.384c1.355,-0.987 2.359,-2.07 3.038,-3.259c0.676,-1.188 1.098,-2.517 1.247,-4.098c0.141,-1.572 0.036,-3.359 -0.325,-5.233c-0.362,-1.873 -0.926,-3.833 -1.661,-5.796c-1.466,-3.937 -3.496,-7.903 -5.796,-11.771c-2.289,-3.885 -4.877,-7.68 -7.63,-11.37c-0.685,-0.925 -1.382,-1.842 -2.091,-2.751c-0.713,-0.915 -1.418,-1.796 -2.201,-2.762c-1.477,-1.828 -2.966,-3.645 -4.49,-5.425c-3.043,-3.566 -6.174,-7.045 -9.445,-10.355c-3.264,-3.316 -6.651,-6.484 -10.187,-9.418c-3.551,-2.907 -7.237,-5.608 -11.086,-7.883c-3.844,-2.263 -7.86,-4.143 -11.919,-5.22c-4.051,-1.091 -8.133,-1.356 -11.817,-0.427c-3.686,0.91 -6.968,3.055 -9.616,6.132c-1.335,1.521 -2.494,3.276 -3.527,5.139c-1.017,1.878 -1.89,3.883 -2.635,5.964c-1.495,4.186 -2.453,8.575 -3.057,13.138c-0.612,4.557 -0.863,9.236 -0.957,13.932c-0.137,9.409 0.452,18.918 1.381,28.404c1.875,18.989 5.083,37.926 8.825,56.747c1.87,9.415 3.909,18.803 6.081,28.163c2.158,9.362 4.43,18.711 6.91,27.99l-1.234,0.372Z" style="fill:#f44336;fill-rule:nonzero;"/>
            <path d="M114.485,188.021l-16.032,2.413l11.421,-5.818l-0.072,-9.553l4.683,12.958Z" style="fill:#a52825;fill-rule:nonzero;"/>
            <path d="M114.485,188.021c-1.272,-2.454 -2.486,-4.61 -3.61,-6.6c-0.558,-0.995 -1.085,-1.95 -1.585,-2.886c-0.486,-0.939 -0.959,-1.858 -1.384,-2.786l3.914,-0.701c0.075,0.795 0.134,1.591 0.187,2.387c0.061,0.796 0.111,1.591 0.148,2.387c0.041,0.796 0.09,1.591 0.111,2.388l0.079,2.388l0.049,1.48l-1.398,0.74c-1.889,0.999 -3.793,1.967 -5.719,2.891c-0.968,0.454 -1.924,0.931 -2.901,1.365c-0.974,0.443 -1.946,0.887 -2.932,1.305l-1.315,-4.104c1.208,-0.104 2.427,-0.158 3.675,-0.197c1.249,-0.034 2.531,-0.041 3.869,-0.037c2.681,0.015 5.569,0.042 8.812,-0.02m0,-0c-2.1,0.742 -4.556,1.573 -7.219,2.392c-1.334,0.407 -2.724,0.802 -4.147,1.17c-1.424,0.363 -2.877,0.711 -4.34,1.01l-12.336,2.514l11.02,-6.619c0.917,-0.551 1.848,-1.077 2.779,-1.603c0.926,-0.536 1.873,-1.029 2.809,-1.545c1.881,-1.014 3.783,-1.985 5.702,-2.925l-1.349,2.219l0.042,-2.388c0.01,-0.796 0.047,-1.593 0.075,-2.389c0.026,-0.797 0.064,-1.593 0.113,-2.389c0.041,-0.797 0.088,-1.593 0.152,-2.39l0.891,-11.179l3.022,10.479c0.355,1.231 0.663,2.472 0.958,3.692c0.28,1.224 0.534,2.428 0.755,3.593c0.439,2.329 0.784,4.492 1.073,6.358" style="fill:#a52825;fill-rule:nonzero;"/>
            <path d="M112.866,186.809l-12.45,2.291l8.777,-5.003l0.213,-7.21l3.46,9.922Z" style="fill:#f44336;fill-rule:nonzero;"/>
            <path d="M112.866,186.809c-1.073,-1.943 -2.083,-3.593 -3.002,-5.083c-0.458,-0.744 -0.882,-1.45 -1.283,-2.136c-0.385,-0.69 -0.758,-1.36 -1.084,-2.038l3.93,-0.605c0.051,0.603 0.085,1.205 0.114,1.807c0.037,0.603 0.063,1.205 0.076,1.807c0.017,0.602 0.041,1.204 0.039,1.805l0.006,1.804l0.006,1.328l-1.252,0.746c-1.446,0.862 -2.91,1.695 -4.398,2.485c-0.748,0.386 -1.484,0.795 -2.244,1.162c-0.755,0.376 -1.509,0.753 -2.277,1.105l-1.476,-4.044c0.916,-0.09 1.844,-0.131 2.801,-0.159c0.958,-0.023 1.95,-0.02 2.997,-0.007c2.098,0.031 4.397,0.07 7.047,0.023m-0,0c-1.5,0.717 -3.352,1.519 -5.403,2.314c-1.029,0.395 -2.112,0.778 -3.228,1.138c-1.118,0.353 -2.264,0.694 -3.424,0.986l-11.468,2.885l9.992,-6.929c0.694,-0.482 1.403,-0.939 2.111,-1.396c0.703,-0.467 1.43,-0.892 2.144,-1.339c1.438,-0.877 2.9,-1.713 4.38,-2.517l-1.247,2.073l0.114,-1.8c0.033,-0.601 0.092,-1.201 0.145,-1.8c0.049,-0.6 0.11,-1.2 0.182,-1.799c0.066,-0.599 0.134,-1.198 0.222,-1.798l1.476,-10.159l2.453,9.554c0.251,0.976 0.454,1.96 0.646,2.924c0.176,0.967 0.328,1.915 0.447,2.824c0.234,1.818 0.377,3.476 0.458,4.839" style="fill:#f44336;fill-rule:nonzero;"/>
            <path d="M39.549,208.45c-0.251,0.473 -0.491,0.966 -0.72,1.479c-0.229,0.513 -0.445,1.018 -0.65,1.512c-0.206,0.495 -0.37,0.989 -0.493,1.482c-0.125,0.494 -0.221,0.928 -0.289,1.303l-2.108,0.335c0.262,-1.308 0.626,-2.535 1.091,-3.681c0.465,-1.146 0.961,-2.277 1.489,-3.392l-8.435,-4.837l2.379,-0.379l6.566,3.818l1.882,-5.164l2.222,-0.353l-2.42,6.497c0.67,0.344 1.392,0.72 2.165,1.127c0.774,0.408 1.557,0.834 2.351,1.28c0.792,0.445 1.579,0.911 2.359,1.399c0.779,0.487 1.518,0.979 2.214,1.478l-2.188,0.348c-0.425,-0.299 -0.92,-0.622 -1.487,-0.969c-0.567,-0.347 -1.179,-0.707 -1.837,-1.078c-0.658,-0.371 -1.341,-0.746 -2.048,-1.125c-0.708,-0.378 -1.389,-0.738 -2.043,-1.08Z" style="fill:#a52825;fill-rule:nonzero;stroke:#a52825;stroke-width:10px;"/>
            <path d="M40.884,208.235c-0.254,0.47 -0.499,0.96 -0.734,1.471c-0.236,0.512 -0.459,1.014 -0.671,1.506c-0.212,0.493 -0.386,0.985 -0.52,1.478c-0.136,0.493 -0.243,0.926 -0.321,1.301l-2.007,0.31c0.296,-1.307 0.685,-2.531 1.166,-3.672c0.482,-1.141 0.992,-2.268 1.532,-3.378l-7.806,-4.945l2.265,-0.35l6.074,3.902l1.97,-5.147l2.115,-0.326l-2.526,6.474c0.622,0.352 1.291,0.738 2.009,1.155c0.717,0.418 1.442,0.854 2.177,1.31c0.734,0.455 1.461,0.931 2.182,1.429c0.72,0.497 1.4,1 2.041,1.507l-2.083,0.321c-0.391,-0.303 -0.848,-0.633 -1.372,-0.988c-0.523,-0.354 -1.09,-0.721 -1.699,-1.101c-0.61,-0.38 -1.242,-0.763 -1.898,-1.152c-0.656,-0.387 -1.287,-0.755 -1.894,-1.105Z" style="fill:#f44336;fill-rule:nonzero;stroke:#f44336;stroke-width:10px;"/>
        </g>
    </g>
</svg>
